<svg width="180" height="47" viewBox="0 0 180 47" fill="none" xmlns="http://www.w3.org/2000/svg">
<path d="M3.33986 1.50366C1.40889 1.59211 -0.0847761 3.22916 0.00366535 5.16014C0.0921068 7.09111 1.72917 8.58478 3.66014 8.49633L3.33986 1.50366ZM179.5 38.5L153.051 7.94223L139.812 46.1267L179.5 38.5ZM3.66014 8.49633C14.5496 7.99758 31.4577 7.39919 46.7773 7.22477C54.4401 7.13753 61.6739 7.15678 67.5456 7.34508C73.5644 7.53809 77.7615 7.90274 79.6165 8.38666L81.3835 1.61334C78.6385 0.897257 73.6398 0.536908 67.77 0.348673C61.7532 0.155721 54.4057 0.137468 46.6977 0.225226C31.2756 0.400809 14.2838 1.00242 3.33986 1.50366L3.66014 8.49633ZM79.6165 8.38666C86.0937 10.0764 119.404 21.4175 148.592 31.4882L150.875 24.8709C121.901 14.8744 88.2022 3.39215 81.3835 1.61334L79.6165 8.38666Z" fill="white"/>
</svg>
